<?xml version="1.0" standalone="no"?>
<!DOCTYPE svg PUBLIC "-//W3C//DTD SVG 20010904//EN"
 "http://www.w3.org/TR/2001/REC-SVG-20010904/DTD/svg10.dtd">
<svg version="1.0" xmlns="http://www.w3.org/2000/svg"
 width="1000.000000pt" height="1000.000000pt" viewBox="0 0 500.000000 500.000000"
 preserveAspectRatio="xMidYMid meet">

<g transform="translate(0.000000,500.000000) scale(0.100000,-0.100000)"
fill="#000000" stroke="none">
<path d="M0 2500 l0 -2500 2500 0 2500 0 0 2500 0 2500 -2500 0 -2500 0 0
-2500z m2926 1361 c-4 -5 -13 -8 -22 -4 -11 4 -12 8 -3 20 14 16 36 2 25 -16z
m-80 -52 c0 -19 -22 -15 -30 6 -3 9 2 13 12 12 10 0 18 -9 18 -18z m179 1 c3
-5 1 -10 -4 -10 -6 0 -11 5 -11 10 0 6 2 10 4 10 3 0 8 -4 11 -10z m-405 -4
c0 -3 -4 -8 -10 -11 -5 -3 -10 -1 -10 4 0 6 5 11 10 11 6 0 10 -2 10 -4z
m-255 -48 c-1 -13 1 -27 6 -33 4 -6 -4 -10 -21 -10 -16 0 -26 2 -24 4 2 3 -2
14 -10 26 -14 21 -13 22 10 19 13 -1 26 2 30 7 8 14 11 11 9 -13z m715 -8 c0
-5 -5 -10 -11 -10 -5 0 -7 5 -4 10 3 6 8 10 11 10 2 0 4 -4 4 -10z m100 0 c0
-5 -4 -10 -10 -10 -5 0 -10 5 -10 10 0 6 5 10 10 10 6 0 10 -4 10 -10z m-482
-10 c239 -30 448 -132 633 -307 47 -46 90 -79 94 -75 5 4 5 2 1 -5 -3 -6 14
-41 39 -76 203 -291 246 -693 111 -1028 -26 -62 -24 -63 33 -20 36 27 35 19
-6 -36 l-24 -31 92 -13 c102 -15 101 -16 -12 -33 l-80 -11 31 -42 c37 -50 33
-54 -16 -17 -19 15 -37 25 -39 22 -3 -3 -10 -42 -17 -89 -13 -91 -20 -85 -33
30 -4 34 -10 61 -14 61 -4 0 -27 -15 -52 -32 l-44 -33 33 44 c17 25 32 48 32
52 0 4 -27 10 -61 14 -109 13 -122 21 -49 29 36 4 77 10 92 13 l28 5 -30 38
c-41 52 -38 58 10 20 23 -18 42 -31 44 -29 1 2 9 45 16 94 l14 90 11 -67 c5
-36 13 -69 16 -72 14 -15 52 185 57 302 15 379 -131 704 -428 951 -157 131
-347 209 -593 245 -92 13 -92 13 -32 15 33 0 97 -4 143 -9z m-750 -84 c6 -3
20 6 31 21 l21 28 -10 -28 c-14 -41 -5 -49 48 -42 l47 6 -34 -16 c-61 -28 -66
-35 -34 -62 l28 -23 -28 10 c-40 14 -49 4 -43 -44 5 -38 5 -39 -7 -15 -6 14
-18 34 -26 43 -14 16 -16 16 -33 -6 l-19 -23 7 28 c3 15 4 27 0 27 -3 0 -37
-27 -76 -61 -189 -162 -333 -433 -369 -693 -46 -328 69 -688 293 -925 171
-180 373 -293 611 -342 85 -18 124 -20 255 -16 163 5 254 23 380 72 81 32 76
21 -7 -17 -177 -80 -321 -112 -508 -111 -191 1 -326 33 -500 119 -267 132
-479 379 -568 660 -47 148 -60 244 -54 399 10 275 103 507 289 717 33 37 57
72 53 78 -3 5 3 10 15 10 11 0 44 19 73 43 29 23 63 50 77 60 l25 17 -40 -6
c-34 -4 -37 -3 -20 7 11 6 31 18 44 26 l24 15 -29 25 c-21 17 -23 21 -7 14 47
-23 56 -16 50 42 l-6 52 18 -41 c11 -23 23 -44 29 -48z m521 7 c-8 -9 -16 -10
-22 -4 -13 13 0 31 19 24 11 -4 12 -8 3 -20z m111 17 c0 -5 -4 -10 -10 -10 -5
0 -10 5 -10 10 0 6 5 10 10 10 6 0 10 -4 10 -10z m710 -50 c0 -5 -5 -10 -11
-10 -5 0 -7 5 -4 10 3 6 8 10 11 10 2 0 4 -4 4 -10z m-410 -10 c0 -5 -4 -10
-10 -10 -5 0 -10 5 -10 10 0 6 5 10 10 10 6 0 10 -4 10 -10z m-1165 -90 c3 -5
1 -10 -4 -10 -6 0 -11 5 -11 10 0 6 2 10 4 10 3 0 8 -4 11 -10z m795 -131 l55
-95 37 14 c33 13 41 12 75 -4 23 -12 44 -32 53 -52 12 -26 20 -32 39 -28 34 6
79 -12 93 -38 11 -21 24 -71 35 -132 3 -18 0 -40 -5 -50 -8 -15 -5 -25 9 -43
27 -33 24 -46 -7 -26 -14 9 -43 23 -64 30 l-39 14 19 -32 c27 -44 27 -137 -1
-194 -36 -74 -137 -135 -326 -197 -103 -34 -147 -63 -151 -99 -3 -23 0 -27 22
-27 13 0 59 14 102 31 70 28 86 31 159 27 95 -5 156 -29 210 -83 56 -56 77
-113 77 -203 -1 -146 -80 -250 -225 -294 -61 -18 -84 -20 -205 -14 -76 3 -199
9 -276 12 -125 6 -136 8 -108 20 17 7 39 25 49 40 17 26 18 62 21 486 2 312
-1 471 -8 499 -11 39 -13 41 -42 35 -18 -3 -57 -19 -88 -35 -50 -24 -57 -26
-53 -10 3 10 11 23 19 30 10 8 11 16 3 31 -11 20 -9 43 9 127 13 60 51 96 99
94 33 -1 40 2 53 30 9 19 31 40 53 51 34 16 42 17 75 4 l37 -14 44 76 c65 113
71 122 84 117 7 -2 37 -46 67 -98z m-950 -13 c0 -3 -4 -8 -10 -11 -5 -3 -10
-1 -10 4 0 6 5 11 10 11 6 0 10 -2 10 -4z m1965 -66 c3 -5 1 -10 -4 -10 -6 0
-11 5 -11 10 0 6 2 10 4 10 3 0 8 -4 11 -10z m-2015 -10 c0 -5 -4 -10 -10 -10
-5 0 -10 5 -10 10 0 6 5 10 10 10 6 0 10 -4 10 -10z m-57 -63 c-3 -5 -10 -4
-15 1 -6 6 -7 16 -3 22 6 9 9 9 16 -1 4 -7 5 -17 2 -22z m204 -42 c-8 -9 -16
-9 -29 -2 -15 10 -15 12 0 23 22 16 47 -1 29 -21z m33 -55 c0 -5 -2 -10 -4
-10 -3 0 -8 5 -11 10 -3 6 -1 10 4 10 6 0 11 -4 11 -10z m1716 -10 c0 -9 -7
-16 -16 -16 -9 0 -16 7 -16 16 0 9 7 16 16 16 9 0 16 -7 16 -16z m204 10 c0
-5 -4 -10 -10 -10 -5 0 -10 5 -10 10 0 6 5 10 10 10 6 0 10 -4 10 -10z m47
-76 c-3 -4 -1 -16 5 -28 6 -11 7 -18 3 -14 -4 4 -16 3 -25 -2 -14 -8 -19 -5
-22 15 -4 18 0 25 16 28 12 2 23 5 25 6 2 0 1 -2 -2 -5z m-2097 -24 c0 -5 -5
-10 -11 -10 -5 0 -7 5 -4 10 3 6 8 10 11 10 2 0 4 -4 4 -10z m-180 -10 c0 -5
-4 -10 -10 -10 -5 0 -10 5 -10 10 0 6 5 10 10 10 6 0 10 -4 10 -10z m2342 -84
c4 -19 0 -25 -19 -29 -13 -2 -21 -2 -19 1 3 2 1 13 -4 23 -8 15 -7 17 10 14
11 -2 20 0 20 6 0 18 8 9 12 -15z m-2078 -11 c7 -20 -23 -36 -45 -22 -13 8
-14 13 -5 23 15 18 43 17 50 -1z m-329 -5 c3 -5 1 -10 -4 -10 -6 0 -11 5 -11
10 0 6 2 10 4 10 3 0 8 -4 11 -10z m-80 -71 c-11 -16 -31 -10 -31 10 0 16 4
18 18 10 10 -6 16 -14 13 -20z m295 -10 c0 -5 -7 -9 -15 -9 -15 0 -20 12 -9
23 8 8 24 -1 24 -14z m2000 -19 c0 -5 -4 -10 -10 -10 -5 0 -10 5 -10 10 0 6 5
10 10 10 6 0 10 -4 10 -10z m170 -10 c0 -5 -5 -10 -11 -10 -5 0 -7 5 -4 10 3
6 8 10 11 10 2 0 4 -4 4 -10z m46 -76 c-8 -8 -15 -8 -28 -1 -15 10 -15 12 0
23 20 15 45 -4 28 -22z m-209 -21 c-3 -30 -32 -41 -34 -12 -1 11 5 19 13 19 8
0 14 5 14 10 0 6 2 10 4 10 3 0 4 -12 3 -27z m198 -63 c3 -5 1 -10 -4 -10 -6
0 -11 5 -11 10 0 6 2 10 4 10 3 0 8 -4 11 -10z m-2535 -40 c0 -5 -4 -10 -10
-10 -5 0 -10 5 -10 10 0 6 5 10 10 10 6 0 10 -4 10 -10z m80 -10 c0 -5 -4 -10
-10 -10 -5 0 -10 5 -10 10 0 6 5 10 10 10 6 0 10 -4 10 -10z m2258 -28 c-8 -9
-14 -9 -24 -1 -10 8 -10 14 -1 23 16 18 40 -3 25 -22z m16 -91 c3 -5 -1 -11
-9 -15 -15 -6 -29 7 -18 18 9 9 21 8 27 -3z m-2015 -15 c0 -5 5 -12 13 -17 8
-5 2 -7 -16 -6 -33 3 -47 35 -15 33 11 -1 19 -5 18 -10z m2141 -36 c0 -5 -4
-10 -10 -10 -5 0 -10 5 -10 10 0 6 5 10 10 10 6 0 10 -4 10 -10z m-2380 -30
c0 -5 -4 -10 -10 -10 -5 0 -10 5 -10 10 0 6 5 10 10 10 6 0 10 -4 10 -10z
m2395 -60 c-5 -8 -11 -8 -17 -2 -6 6 -7 16 -3 22 5 8 11 8 17 2 6 -6 7 -16 3
-22z m-2381 -48 c2 -4 1 -14 -4 -22 -7 -11 -11 -11 -24 3 -12 11 -13 17 -3 20
19 8 25 8 31 -1z m2406 -12 c0 -5 -4 -10 -10 -10 -5 0 -10 5 -10 10 0 6 5 10
10 10 6 0 10 -4 10 -10z m-2147 -15 c8 -18 -11 -31 -25 -17 -11 11 -3 32 12
32 4 0 10 -7 13 -15z m-203 -50 c0 -8 -7 -15 -15 -15 -8 0 -15 7 -15 15 0 8 7
15 15 15 8 0 15 -7 15 -15z m280 5 c0 -5 -4 -10 -10 -10 -5 0 -10 5 -10 10 0
6 5 10 10 10 6 0 10 -4 10 -10z m1680 -20 c0 -5 -2 -10 -4 -10 -3 0 -8 5 -11
10 -3 6 -1 10 4 10 6 0 11 -4 11 -10z m-1660 -55 c10 -12 10 -18 0 -30 -25
-30 -61 -7 -46 30 3 8 12 15 19 15 8 0 20 -7 27 -15z m79 -101 c-8 -10 -14
-10 -23 -1 -18 16 3 40 22 25 9 -8 9 -14 1 -24z m-324 -78 c0 -14 -6 -21 -20
-21 -14 0 -21 7 -21 21 0 14 7 20 21 20 14 0 20 -6 20 -20z m462 -30 c-16 -18
-40 3 -25 22 8 9 14 9 24 1 10 -8 10 -14 1 -23z m-87 -26 c0 -5 -5 -10 -11
-10 -5 0 -7 5 -4 10 3 6 8 10 11 10 2 0 4 -4 4 -10z m-310 -10 c0 -5 -5 -10
-11 -10 -5 0 -7 5 -4 10 3 6 8 10 11 10 2 0 4 -4 4 -10z m1851 -33 c-13 -13
-26 -3 -16 12 3 6 11 8 17 5 6 -4 6 -10 -1 -17z m-171 -17 c0 -5 -2 -10 -4
-10 -3 0 -8 5 -11 10 -3 6 -1 10 4 10 6 0 11 -4 11 -10z m78 -38 c-8 -9 -14
-9 -24 -1 -10 8 -10 14 -1 23 16 18 40 -3 25 -22z m-1334 -25 c-21 -12 -38 2
-24 18 9 11 15 12 25 2 11 -10 10 -13 -1 -20z m-334 3 c0 -5 -5 -10 -11 -10
-5 0 -7 5 -4 10 3 6 8 10 11 10 2 0 4 -4 4 -10z m1530 -4 c0 -11 -19 -15 -25
-6 -3 5 1 10 9 10 9 0 16 -2 16 -4z m-1470 -20 c0 -3 -4 -8 -10 -11 -5 -3 -10
-1 -10 4 0 6 5 11 10 11 6 0 10 -2 10 -4z m1545 -16 c3 -5 1 -10 -4 -10 -6 0
-11 5 -11 10 0 6 2 10 4 10 3 0 8 -4 11 -10z m-1466 -86 c-8 -10 -14 -11 -24
-1 -15 14 0 28 22 20 10 -4 11 -9 2 -19z m1506 16 c3 -5 1 -10 -4 -10 -6 0
-11 5 -11 10 0 6 2 10 4 10 3 0 8 -4 11 -10z m-125 -10 c0 -5 -5 -10 -11 -10
-5 0 -7 5 -4 10 3 6 8 10 11 10 2 0 4 -4 4 -10z m-100 -35 c0 -8 -7 -15 -15
-15 -8 0 -15 7 -15 15 0 8 7 15 15 15 8 0 15 -7 15 -15z m-1197 -66 c-11 -4
-23 0 -30 10 -17 23 7 34 30 13 18 -16 18 -17 0 -23z m1312 -19 c-5 -8 -11 -8
-17 -2 -6 6 -7 16 -3 22 5 8 11 8 17 2 6 -6 7 -16 3 -22z m-395 16 c0 -3 -4
-8 -10 -11 -5 -3 -10 -1 -10 4 0 6 5 11 10 11 6 0 10 -2 10 -4z m-645 -106
c-5 -8 -11 -8 -17 -2 -6 6 -7 16 -3 22 5 8 11 8 17 2 6 -6 7 -16 3 -22z m835
6 c0 -3 -4 -8 -10 -11 -5 -3 -10 -1 -10 4 0 6 5 11 10 11 6 0 10 -2 10 -4z
m-754 -65 c-4 -5 -13 -8 -22 -4 -11 4 -12 8 -3 20 14 16 36 2 25 -16z m165
-138 c0 -27 2 -60 3 -75 1 -19 -3 -28 -14 -28 -12 0 -15 14 -15 75 0 53 4 75
13 75 8 0 12 -17 13 -47z m159 -31 c5 -72 5 -72 -20 -72 -18 0 -21 3 -12 9 10
6 13 27 10 75 -4 91 16 80 22 -12z m-502 61 c-11 -3 -18 -14 -18 -29 0 -21 4
-25 23 -22 16 2 22 9 21 26 0 12 3 22 8 22 15 0 21 -30 9 -44 -9 -10 -8 -15 4
-20 18 -7 20 -37 3 -54 -7 -7 -30 -12 -52 -12 l-41 0 0 70 0 70 30 -1 c17 -1
22 -3 13 -6z m166 -55 c9 -12 16 -28 16 -35 0 -14 -28 -43 -41 -43 -6 0 -3 7
5 16 20 19 20 35 2 59 -19 26 -46 13 -46 -23 0 -15 5 -33 12 -40 7 -7 8 -12 2
-12 -33 0 -45 57 -18 84 22 22 50 20 68 -6z m110 6 c27 -27 15 -84 -18 -84 -6
0 -5 5 2 12 7 7 12 25 12 40 0 36 -27 49 -46 23 -18 -24 -18 -40 2 -59 16 -16
8 -22 -12 -8 -20 14 -25 45 -9 68 18 28 47 31 69 8z m111 -4 c-18 -20 -18 -21
4 -50 17 -24 18 -30 7 -30 -9 0 -22 13 -30 29 -14 25 -14 30 -1 41 8 7 12 16
9 21 -3 5 3 9 12 9 16 0 16 -2 -1 -20z m229 -2 c9 -12 16 -28 16 -35 0 -14
-28 -43 -41 -43 -6 0 -3 7 5 16 20 19 20 35 2 59 -19 26 -46 13 -46 -23 0 -15
5 -33 12 -40 7 -7 8 -12 2 -12 -33 0 -45 57 -18 84 22 22 50 20 68 -6z m62 13
c-3 -5 -1 -23 5 -41 9 -23 14 -28 20 -18 10 15 12 7 3 -16 -10 -27 -20 -18
-42 34 -21 50 -21 50 -1 50 11 0 18 -4 15 -9z m64 5 c0 -11 -19 -15 -25 -6 -3
5 1 10 9 10 9 0 16 -2 16 -4z m85 -9 c24 -18 11 -37 -26 -37 -24 0 -30 -4 -27
-17 2 -12 13 -18 30 -18 15 1 24 -3 22 -7 -8 -12 -49 -9 -62 4 -17 17 -15 54
4 72 19 20 35 20 59 3z m60 5 c6 -4 10 -26 10 -50 0 -38 -2 -42 -25 -42 -18 0
-21 3 -11 9 9 6 12 22 9 50 -4 42 -1 47 17 33z m45 -2 c0 -5 -4 -10 -10 -10
-5 0 -10 5 -10 10 0 6 5 10 10 10 6 0 10 -4 10 -10z m79 -7 c0 -11 -3 -13 -6
-5 -5 13 -43 17 -43 5 0 -4 12 -17 27 -29 27 -21 27 -54 1 -54 -9 0 -9 3 2 10
16 11 11 17 -37 46 -15 10 -16 13 -4 28 19 22 61 21 60 -1z m-49 -68 c10 -12
10 -15 -4 -15 -9 0 -16 7 -16 15 0 8 2 15 4 15 2 0 9 -7 16 -15z"/>
<path d="M2390 3350 c-23 -39 -40 -74 -38 -78 17 -39 75 -133 84 -136 11 -4
94 120 94 140 0 14 -81 144 -89 144 -5 0 -28 -32 -51 -70z m83 -15 c15 -25 27
-51 27 -56 0 -13 -53 -109 -60 -109 -7 0 -60 96 -60 109 0 12 53 101 60 101 3
0 17 -20 33 -45z"/>
<path d="M2413 3313 l-21 -37 21 -38 c12 -21 25 -38 28 -38 3 0 15 17 27 38
l21 37 -22 38 c-11 20 -24 37 -27 37 -3 0 -16 -17 -27 -37z"/>
<path d="M2213 3295 c-38 -16 -53 -42 -53 -91 0 -29 8 -44 39 -75 34 -34 45
-39 84 -39 37 0 49 5 66 26 26 33 26 35 0 79 l-22 36 -19 -21 c-24 -26 -75
-24 -92 3 -17 27 14 44 33 17 19 -27 40 -25 51 6 10 26 -1 64 -20 64 -4 0 -14
2 -22 5 -7 2 -27 -2 -45 -10z"/>
<path d="M2580 3281 c-14 -28 4 -71 30 -71 11 0 20 7 20 15 0 8 9 15 20 15 22
0 26 -20 8 -38 -18 -18 -59 -14 -83 8 l-21 20 -23 -41 -23 -41 19 -27 c16 -20
30 -27 67 -29 43 -3 50 0 87 36 33 33 39 46 39 81 0 57 -33 91 -89 91 -30 0
-43 -5 -51 -19z"/>
<path d="M2049 3193 c-25 -28 -28 -47 -14 -80 26 -61 120 -81 146 -31 8 15 7
24 -8 41 -10 12 -19 24 -20 26 -1 2 -9 -4 -18 -13 -28 -27 -75 -14 -75 21 0
19 21 16 36 -4 17 -23 37 -5 32 28 -4 31 -56 39 -79 12z"/>
<path d="M2755 3200 c-9 -15 3 -60 16 -60 5 0 12 7 15 15 9 22 34 19 34 -4 0
-32 -48 -42 -74 -15 -15 14 -18 14 -35 -7 -24 -30 -14 -60 24 -72 41 -14 92
14 111 60 15 34 14 38 -4 62 -20 28 -75 41 -87 21z"/>
<path d="M2370 3110 c-9 -18 -8 -20 15 -20 23 0 24 2 15 20 -6 11 -13 20 -15
20 -2 0 -9 -9 -15 -20z"/>
<path d="M2482 3110 c-11 -18 -10 -20 13 -20 23 0 24 2 15 20 -6 11 -12 20
-13 20 -1 0 -8 -9 -15 -20z"/>
<path d="M2006 3084 c-9 -24 -7 -62 4 -69 15 -10 50 5 50 20 0 8 -11 26 -24
40 -20 21 -25 23 -30 9z"/>
<path d="M2832 3064 l-33 -31 31 -13 c35 -15 50 -4 50 35 0 38 -14 41 -48 9z"/>
<path d="M2200 3080 c0 -5 7 -10 16 -10 8 0 12 5 9 10 -3 6 -10 10 -16 10 -5
0 -9 -4 -9 -10z"/>
<path d="M2655 3080 c-3 -5 1 -10 9 -10 9 0 16 5 16 10 0 6 -4 10 -9 10 -6 0
-13 -4 -16 -10z"/>
<path d="M2273 3023 c-10 -4 -13 -121 -13 -539 l0 -533 57 -17 c77 -23 222
-22 287 1 109 38 175 109 196 212 28 133 -36 287 -137 329 -48 21 -104 17
-180 -12 -148 -56 -188 -49 -162 26 13 37 61 71 197 139 100 50 172 104 194
145 35 65 27 149 -20 200 -46 49 -76 56 -249 55 -87 0 -164 -3 -170 -6z"/>
<path d="M1960 1220 c0 -25 4 -30 24 -30 28 0 42 26 25 46 -6 8 -20 14 -30 14
-14 0 -19 -7 -19 -30z"/>
<path d="M2757 1264 c-14 -14 -6 -24 19 -24 16 0 24 5 22 13 -5 14 -31 21 -41
11z"/>
</g>
</svg>
